<svg xmlns="http://www.w3.org/2000/svg" width="93" height="93" viewBox="0 0 93 93">
  <g id="Grupo_7902" data-name="Grupo 7902" transform="translate(-673 -561)">
    <circle id="Elipse_21" data-name="Elipse 21" cx="46.5" cy="46.5" r="46.5" transform="translate(673 561)" fill="#f0d12f"/>
    <g id="Grupo_7898" data-name="Grupo 7898" transform="translate(688.353 574)">
      <path id="Caminho_12125" data-name="Caminho 12125" d="M55.567,41.38a4.381,4.381,0,0,0-7.479-3.1L36.816,49.557H29.488v-.966a4.835,4.835,0,0,0-4.829-4.829h-.966a1.932,1.932,0,0,0-1.932,1.932v.966a4.782,4.782,0,0,0,.991,2.9H15V61.147H47.84V50.922l6.443-6.444a4.351,4.351,0,0,0,1.284-3.1ZM23.693,46.659v-.966h.966a2.9,2.9,0,0,1,2.9,2.9v.966h-.966A2.9,2.9,0,0,1,23.693,46.659ZM45.909,59.215H16.932V51.488H45.909Zm7.009-16.1-6.443,6.444H39.547l9.907-9.908a2.449,2.449,0,1,1,3.464,3.464Z" transform="translate(-0.273 -1.194)"/>
      <rect id="Ret창ngulo_18203" data-name="Ret창ngulo 18203" width="1.445" height="2.168" transform="translate(49.635 39.577)"/>
      <rect id="Ret창ngulo_18204" data-name="Ret창ngulo 18204" width="2.168" height="2.168" transform="translate(45.299 43.19)"/>
      <path id="Caminho_12126" data-name="Caminho 12126" d="M16.659,43.327v-.166a4.236,4.236,0,0,0-1.248-3.015,2.318,2.318,0,0,1-.684-1.649,2.5,2.5,0,0,0-2.5-2.5h-.8a2.5,2.5,0,0,0-2.5,2.5,2.318,2.318,0,0,1-.684,1.649A4.236,4.236,0,0,0,7,43.161v.166a4.268,4.268,0,0,0,4.263,4.263H12.4a4.268,4.268,0,0,0,4.263-4.263Zm-1.932,0A2.335,2.335,0,0,1,12.4,45.659H11.263a2.335,2.335,0,0,1-2.332-2.332v-.166a2.318,2.318,0,0,1,.684-1.649A4.236,4.236,0,0,0,10.864,38.5a.566.566,0,0,1,.566-.566h.8a.566.566,0,0,1,.566.566,4.236,4.236,0,0,0,1.248,3.015,2.318,2.318,0,0,1,.684,1.649Z" transform="translate(0 -1.16)"/>
      <path id="Caminho_12127" data-name="Caminho 12127" d="M11.484,22.143v.566a4.838,4.838,0,0,0,3.864,4.733V27.7a3.7,3.7,0,0,0,6.312,2.615L23.074,28.9l3.181,3.181,1.366-1.366L24.44,27.538l1.415-1.415a3.7,3.7,0,0,0-2.616-6.312h-.263a4.838,4.838,0,0,0-4.733-3.864h-.565l-.2-.2a4.381,4.381,0,0,0-6.2,6.2Zm1.166-5.029a2.45,2.45,0,0,1,3.464,0l.766.766h1.366a2.9,2.9,0,0,1,2.9,2.9v.966h2.1a1.766,1.766,0,0,1,1.249,3.015l-1.415,1.415-3.181-3.181-1.366,1.366,3.182,3.181-1.415,1.415A1.767,1.767,0,0,1,17.279,27.7v-2.1h-.966a2.9,2.9,0,0,1-2.9-2.9V21.343l-.766-.766A2.451,2.451,0,0,1,12.649,17.113Z" transform="translate(-0.102 -0.425)"/>
      <path id="Caminho_12128" data-name="Caminho 12128" d="M37.244,29.5a3.381,3.381,0,0,0-3.381,3.381h-.483a3.381,3.381,0,0,0,0,6.761h.483v3.864h6.761V39.642h.483a3.381,3.381,0,0,0,0-6.761h-.483A3.381,3.381,0,0,0,37.244,29.5Zm1.449,12.074H35.8V39.642h2.9Zm2.415-6.761a1.449,1.449,0,1,1,0,2.9H33.381a1.449,1.449,0,1,1,0-2.9H35.8V32.881a1.449,1.449,0,1,1,2.9,0v1.932Z" transform="translate(-0.785 -0.938)"/>
      <path id="Caminho_12129" data-name="Caminho 12129" d="M22.829,34A4.835,4.835,0,0,0,18,38.829V39.8a1.932,1.932,0,0,0,1.932,1.932H20.9A4.835,4.835,0,0,0,25.727,36.9v-.966A1.932,1.932,0,0,0,23.8,34Zm.966,2.9a2.9,2.9,0,0,1-2.9,2.9h-.966v-.966a2.9,2.9,0,0,1,2.9-2.9H23.8Z" transform="translate(-0.375 -1.092)"/>
      <path id="Caminho_12130" data-name="Caminho 12130" d="M47.352,23.7A6.8,6.8,0,0,0,46,27.761v1.932a2.9,2.9,0,0,0,1.932,2.72v2.11h1.932v-2.11a2.9,2.9,0,0,0,1.932-2.72V28.534a4.773,4.773,0,0,1,.8-2.654,6.7,6.7,0,0,0,1.128-3.721V21h-.966A6.793,6.793,0,0,0,47.352,23.7Zm.58,4.057a4.829,4.829,0,0,1,3.78-4.713,4.771,4.771,0,0,1-.721,1.762,6.7,6.7,0,0,0-1.128,3.724v1.159a.966.966,0,1,1-1.932,0Z" transform="translate(-1.33 -0.648)"/>
      <path id="Caminho_12131" data-name="Caminho 12131" d="M26.883,8.6a4.772,4.772,0,0,1,2.651-.8h1.159a2.9,2.9,0,0,0,2.72-1.932h2.109V3.932h-2.11A2.9,2.9,0,0,0,30.693,2H28.761A6.761,6.761,0,0,0,22,8.761v.966h1.159A6.7,6.7,0,0,0,26.883,8.6ZM25.864,4.9a4.86,4.86,0,0,1,2.9-.966h1.932a.966.966,0,0,1,0,1.932H29.534a6.7,6.7,0,0,0-3.725,1.128,4.778,4.778,0,0,1-1.763.721A4.855,4.855,0,0,1,25.864,4.9Z" transform="translate(-0.512)"/>
      <path id="Caminho_12132" data-name="Caminho 12132" d="M34.881,8v2.045a4.339,4.339,0,0,0-3.344,4.813L32.7,23.6a3.172,3.172,0,0,0,6.289,0l1.165-8.744a4.339,4.339,0,0,0-3.344-4.813V8Zm3.361,6.6-.408,3.059H35.846v1.932h1.73l-.5,3.753a1.24,1.24,0,0,1-2.459,0L33.6,15.727h2.245V13.8H33.493a2.41,2.41,0,0,1,4.749.8Z" transform="translate(-0.836 -0.205)"/>
      <path id="Caminho_12133" data-name="Caminho 12133" d="M44.9,21.8h.966a2.9,2.9,0,0,0,0-5.8H44.9a2.9,2.9,0,0,0,0,5.8Zm0-3.864h.966a.966.966,0,0,1,0,1.932H44.9a.966.966,0,0,1,0-1.932Z" transform="translate(-1.194 -0.478)"/>
      <path id="Caminho_12134" data-name="Caminho 12134" d="M26.864,12H25.9a2.9,2.9,0,0,0,0,5.8h.966a2.9,2.9,0,0,0,0-5.8Zm0,3.864H25.9a.966.966,0,0,1,0-1.932h.966a.966.966,0,1,1,0,1.932Z" transform="translate(-0.546 -0.341)"/>
    </g>
  </g>
</svg>
