<svg xmlns="http://www.w3.org/2000/svg" width="93" height="93" viewBox="0 0 93 93">
  <g id="Grupo_7903" data-name="Grupo 7903" transform="translate(-1234 -561)">
    <circle id="Elipse_22" data-name="Elipse 22" cx="46.5" cy="46.5" r="46.5" transform="translate(1234 561)" fill="#f0d12f"/>
    <g id="MEDICINE_RECORD" data-name="MEDICINE RECORD" transform="translate(1206.152 527.499)">
      <path id="Caminho_12135" data-name="Caminho 12135" d="M100.978,75.975H91.737l4.416-4.416A6.63,6.63,0,1,0,88.988,64.4l-11.58,11.58H48.738a1.244,1.244,0,0,0-1.244,1.244v4.975a1.244,1.244,0,0,0,1.244,1.244h0a26.12,26.12,0,0,0,14.515,22.389H61.176a1.244,1.244,0,1,0,0,2.488H72.37c.336,0,.672.075,1.02.087h.883a15.58,15.58,0,0,0,2.152-.1h9.627a1.244,1.244,0,1,0,0-2.488h-.6a25.523,25.523,0,0,0,6.58-4.59,25,25,0,0,0,7.7-17.787h1.244a1.244,1.244,0,0,0,1.244-1.244V77.219A1.244,1.244,0,0,0,100.978,75.975ZM91.028,65.851a1.244,1.244,0,0,0,.361-.883,4.154,4.154,0,1,1,4.154,4.154,1.244,1.244,0,0,0-.883.361l-6.443,6.493H80.928Zm8.707,15.1h-31.1a1.244,1.244,0,0,0,0,2.488H97.247a22.538,22.538,0,0,1-6.928,16.008,22.886,22.886,0,0,1-14.092,6.381H72.37A23.409,23.409,0,0,1,51.225,83.438H56.2a1.244,1.244,0,0,0,0-2.488H49.982V78.463H99.734ZM64.907,82.194a2.488,2.488,0,1,1-2.488-2.488A2.488,2.488,0,0,1,64.907,82.194Z" transform="translate(-2 -2)"/>
    </g>
  </g>
</svg>
