<svg xmlns="http://www.w3.org/2000/svg" width="111.738" height="136.427" viewBox="0 0 111.738 136.427">
  <defs>
    <style>
      .cls-1, .cls-2 {
        fill: #fff;
      }

      .cls-2 {
        font-size: 98px;
        font-family: GoldplayAlt-Bold, Goldplay Alt;
        font-weight: 700;
      }

      .cls-3 {
        fill: none;
      }

      .cls-4, .cls-5 {
        stroke: none;
      }

      .cls-5 {
        fill: #fff;
      }
    </style>
  </defs>
  <g id="Group_5" data-name="Group 5" transform="translate(0 -0.108)">
    <path id="Shape_5" data-name="Shape 5" class="cls-1" d="M18.284,82.716l-1.5-1.259a.39.39,0,0,1-.054-.617l3.335-3.971a.39.39,0,0,1,.617-.054l.572.48a.39.39,0,0,1,.054.618l-2.783,3.314.821.69a.323.323,0,0,1-.041.586l-.369.251a.554.554,0,0,1-.309.109A.532.532,0,0,1,18.284,82.716Zm-.6-6.189a.97.97,0,1,1,.677.277A.964.964,0,0,1,17.687,76.528Zm-6.332-.583L9.959,74.1c-.94-1.242-.814-2.39.169-3.133s2.1-.561,3.053.7l.67.886,1.265-.957a.4.4,0,0,1,.614.085l.462.61a.4.4,0,0,1-.085.614L11.969,76.03a.468.468,0,0,1-.28.107A.421.421,0,0,1,11.355,75.945Zm-.183-3.673a.688.688,0,0,0-.137,1.039l.658.87,1.161-.877-.658-.87a.682.682,0,0,0-1.024-.162ZM7.5,70.52,6.416,68.541c-.75-1.365-.492-2.464.579-3.052a1.723,1.723,0,0,1,2.021.231L10.228,63.8c.178-.278.389-.2.524.042l.458.834c.139.253.052.386-.125.664L10,67.052l.306.555,1.546-.849a.4.4,0,0,1,.6.174l.368.67a.4.4,0,0,1-.173.6L8.1,70.693a.505.505,0,0,1-.242.069A.4.4,0,0,1,7.5,70.52Zm.37-3.608A.707.707,0,0,0,7.6,67.924l.494.9,1.251-.688-.494-.9a.735.735,0,0,0-.631-.419A.719.719,0,0,0,7.873,66.912Zm78.236,1.1a1.722,1.722,0,0,1-.988-1.778l-2.267.134c-.33.018-.391-.2-.271-.451l.412-.857c.125-.261.283-.267.613-.285l2.021-.116.274-.572-1.589-.763a.4.4,0,0,1-.206-.584l.331-.689a.4.4,0,0,1,.584-.206L89.7,64.089a.4.4,0,0,1,.206.584l-.977,2.035A2.239,2.239,0,0,1,87,68.232,2.056,2.056,0,0,1,86.109,68.014Zm.343-2.524a.69.69,0,0,0,.3.983.708.708,0,0,0,.983-.367l.444-.925L86.9,64.565ZM3.422,62.1a3.18,3.18,0,0,1,1.831-4.219,3.186,3.186,0,0,1,4.089,2.105,3.157,3.157,0,0,1-2.893,4.4A3.256,3.256,0,0,1,3.422,62.1Zm2.393-2.647a1.684,1.684,0,0,0,1.132,3.171,1.691,1.691,0,0,0-.541-3.276A1.764,1.764,0,0,0,5.815,59.454ZM87.862,61.88a3.36,3.36,0,1,1,3.963-2.333,3.243,3.243,0,0,1-3.068,2.465A3.164,3.164,0,0,1,87.862,61.88Zm-.654-3.691a1.669,1.669,0,1,0,2.076-1.139,1.792,1.792,0,0,0-.5-.074A1.634,1.634,0,0,0,87.208,58.188ZM1.378,54.323a3.2,3.2,0,0,1,.477-2.41.385.385,0,0,1,.606-.111l.48.4a.423.423,0,0,1,.1.607,1.858,1.858,0,0,0-.216,1.253,1.625,1.625,0,0,0,1.942,1.332,1.625,1.625,0,0,0,1.343-1.933,1.842,1.842,0,0,0-.647-1.1.423.423,0,0,1-.12-.6l.309-.54a.385.385,0,0,1,.605-.111,3.214,3.214,0,0,1,1.306,2.1A3.166,3.166,0,0,1,5.07,57.031a3.219,3.219,0,0,1-.583.054A3.2,3.2,0,0,1,1.378,54.323Zm87.177.109c-1.036-.132-1.572-1.093-1.4-2.416l.3-2.378a.4.4,0,0,1,.49-.379l5.145.653a.4.4,0,0,1,.38.49l-.279,2.193c-.156,1.23-.885,1.936-1.838,1.815a1.349,1.349,0,0,1-1.125-.914,1.632,1.632,0,0,1-1.448.95A1.786,1.786,0,0,1,88.555,54.432Zm-.2-2.526c-.068.537.159.894.584.949s.737-.245.8-.744l.12-.944-1.387-.185Zm2.419.129a.644.644,0,1,0,1.267.161l.093-.731-1.267-.171ZM.924,50l-.15-3.634a.394.394,0,0,1,.42-.456L1.65,45.9a.4.4,0,0,1,.456.42l.1,2.432L3.27,48.7,3.2,46.933a.4.4,0,0,1,.42-.456L4,46.461a.4.4,0,0,1,.456.42l.073,1.77L5.6,48.606l-.1-2.46a.4.4,0,0,1,.42-.456l.456-.019a.394.394,0,0,1,.456.42l.151,3.661a.4.4,0,0,1-.419.456l-5.182.215H1.35A.394.394,0,0,1,.924,50Zm86.664-1.659-.024-1c-.006-.289.141-.348.428-.467l.554-.237-.057-2.387-.565-.22c-.292-.1-.442-.148-.449-.437l-.022-.941c-.007-.29.148-.442.431-.318L93.2,44.713a.646.646,0,0,1,.433.6l0,.1a.635.635,0,0,1-.405.607l-5.2,2.625a.441.441,0,0,1-.191.052C87.684,48.695,87.594,48.56,87.588,48.345Zm2.048-2.157,1.847-.781-1.884-.73ZM6.37,44.865l-5.157-.551a.4.4,0,0,1-.39-.482l.245-2.29a2.912,2.912,0,0,1,3.345-2.85A2.915,2.915,0,0,1,7.1,42.185l-.245,2.29a.391.391,0,0,1-.412.393A.652.652,0,0,1,6.37,44.865ZM2.389,41.748l-.11,1.029,3.376.361.11-1.03a1.542,1.542,0,0,0-1.519-1.766,2.423,2.423,0,0,0-.256-.014A1.508,1.508,0,0,0,2.389,41.748Zm84.49-1.865a3.556,3.556,0,0,1,.456-2.543c.158-.244.36-.334.6-.176l.44.258a.394.394,0,0,1,.175.594,2.557,2.557,0,0,0-.338,1.55c.087.524.336.824.63.774.423-.07.385-.584.475-1.289.114-.908.418-2.036,1.568-2.227,1.068-.178,1.963.657,2.191,2.027a3.313,3.313,0,0,1-.326,2.134c-.148.251-.337.359-.591.2l-.438-.248a.4.4,0,0,1-.175-.6,1.959,1.959,0,0,0,.255-1.252c-.071-.423-.291-.67-.567-.624-.341.056-.425.515-.488.989-.143,1.073-.277,2.315-1.62,2.539a1.857,1.857,0,0,1-.3.026C87.788,42.02,87.079,41.084,86.879,39.882Zm-79.658-1.7L2.2,36.868a.4.4,0,0,1-.314-.535l.92-3.519a.394.394,0,0,1,.535-.313l.442.116a.4.4,0,0,1,.313.535l-.615,2.355,1.029.269.448-1.714a.4.4,0,0,1,.535-.313l.37.1a.4.4,0,0,1,.314.535l-.448,1.714,1.038.271.623-2.382a.4.4,0,0,1,.535-.313l.442.115a.394.394,0,0,1,.314.535l-.927,3.546a.389.389,0,0,1-.386.334A.586.586,0,0,1,7.221,38.178Zm-6.791-2.5-.409-1.5a.392.392,0,0,1,.113-.433l1.089-1.1c.219-.213.386-.227.577-.032l.152.156c.181.191.18.345-.056.621l-.726.861.213,1.106c.071.356,0,.491-.255.57l-.206.052a.582.582,0,0,1-.161.027C.6,36.01.5,35.908.431,35.682Zm85.091-1.451a.972.972,0,1,1,.929.676A.969.969,0,0,1,85.522,34.231ZM8.6,33.013,3.879,30.994a.515.515,0,0,1-.258-.749l.036-.086a.931.931,0,0,1,.684-.509l3.7-1.149L5.379,27.366a.4.4,0,0,1-.23-.576l.3-.7a.39.39,0,0,1,.572-.222l4.726,2.019a.507.507,0,0,1,.261.74l-.036.085a.928.928,0,0,1-.684.509l-3.7,1.149L9.25,31.5a.4.4,0,0,1,.23.575l-.3.7a.4.4,0,0,1-.366.278A.531.531,0,0,1,8.6,33.013Zm75.558-2.437a3.273,3.273,0,0,1-.065-2.3c.091-.262.214-.425.459-.327l.482.18c.225.077.4.213.295.5a1.99,1.99,0,0,0-.025,1.4.731.731,0,0,0,.972.5c.4-.168.488-.643.24-1.227l-.113-.265a.389.389,0,0,1,.227-.563l.249-.1a.384.384,0,0,1,.563.227l.142.335c.194.454.556.665.891.523s.435-.549.25-.987A1.69,1.69,0,0,0,88,27.622a.375.375,0,0,1-.161-.57l.211-.363c.132-.238.32-.248.563-.107a3.3,3.3,0,0,1,1.37,1.606c.5,1.185.2,2.286-.727,2.679a1.465,1.465,0,0,1-1.508-.211,1.551,1.551,0,0,1-.935,1.45,1.6,1.6,0,0,1-.631.131A2.37,2.37,0,0,1,84.163,30.576ZM80.68,26.481l-.159-.264a.385.385,0,0,1,.147-.589l6.094-3.658a.385.385,0,0,1,.589.147l.159.263a.391.391,0,0,1-.143.6l-6.093,3.658a.486.486,0,0,1-.247.078A.409.409,0,0,1,80.68,26.481ZM8.958,25.823a3.171,3.171,0,0,1-.894-4.49,3.2,3.2,0,0,1,1.98-1.455.385.385,0,0,1,.522.327l.087.616a.423.423,0,0,1-.335.517,1.86,1.86,0,0,0-1.006.778,1.67,1.67,0,0,0,2.829,1.774,1.837,1.837,0,0,0,.263-1.244.424.424,0,0,1,.32-.526l.593-.19a.384.384,0,0,1,.521.327,3.218,3.218,0,0,1-.458,2.432A3.3,3.3,0,0,1,10.6,26.305,3.08,3.08,0,0,1,8.958,25.823Zm70.8-3.286-2.314-2.843a.4.4,0,0,1,.063-.616L81.53,15.8a.4.4,0,0,1,.617.064l2.3,2.821a.394.394,0,0,1-.063.617l-.355.288a.4.4,0,0,1-.617-.063l-1.537-1.888-.825.671,1.118,1.374a.4.4,0,0,1-.063.617l-.3.241a.4.4,0,0,1-.617-.064L80.07,19.109l-.833.677,1.555,1.91a.4.4,0,0,1-.064.617l-.355.288a.464.464,0,0,1-.29.12A.425.425,0,0,1,79.757,22.537ZM14.722,21.8l-4.071-3.212a.4.4,0,0,1-.073-.615l.474-.6a.4.4,0,0,1,.616-.073l4.071,3.212a.4.4,0,0,1,.072.616l-.474.6a.424.424,0,0,1-.33.186A.463.463,0,0,1,14.722,21.8Zm1.353-1.867L14.1,14.456a.646.646,0,0,1,.129-.726l.072-.073a.636.636,0,0,1,.719-.128l5.5,1.93c.29.1.3.322.094.527l-.7.709c-.2.2-.349.14-.633.016l-.555-.235-1.681,1.695.233.56c.126.283.2.421,0,.626l-.663.669a.406.406,0,0,1-.273.142C16.225,20.166,16.133,20.093,16.075,19.934Zm.5-2.858L17.635,16l-1.844-.791Zm57.776-.465-1.7-1.551a.4.4,0,0,1-.029-.619l3.493-3.833a.4.4,0,0,1,.619-.029l1.7,1.551a2.911,2.911,0,0,1,.323,4.382,2.96,2.96,0,0,1-2.193,1.054A3.3,3.3,0,0,1,74.347,16.611Zm.085-1.727.766.7a1.542,1.542,0,0,0,2.322-.181,1.541,1.541,0,0,0-.036-2.328l-.765-.7ZM23.2,15.192l-4.246-5.7a.385.385,0,0,1,.088-.6l.247-.184a.391.391,0,0,1,.608.082l4.246,5.7a.391.391,0,0,1-.095.606l-.247.184a.466.466,0,0,1-.275.106A.41.41,0,0,1,23.2,15.192Zm48.45-.948-.835-.546c-.243-.159-.208-.314-.143-.618l.119-.591-2-1.306-.5.34c-.252.181-.372.28-.614.121l-.789-.516c-.242-.158-.28-.372-.017-.535l4.972-3.033a.647.647,0,0,1,.737-.019l.086.056a.635.635,0,0,1,.27.678l-.789,5.77c-.028.194-.124.286-.252.286A.464.464,0,0,1,71.649,14.244ZM69.77,10.508l1.264.827.4-1.964ZM25.612,11.783l-.188-.343a.674.674,0,0,1-.045-.645c.217-.576.465-1.307.662-1.957.238-.789.421-1.347.22-1.715a.687.687,0,0,0-1-.238,1.97,1.97,0,0,0-.786,1.089.364.364,0,0,1-.546.225l-.369-.149c-.267-.1-.316-.306-.234-.584a3.059,3.059,0,0,1,1.507-1.792,1.913,1.913,0,0,1,2.754.64,2.328,2.328,0,0,1,.124,1.761,11.236,11.236,0,0,1-.651,1.918l1.767-.967a.391.391,0,0,1,.587.178l.211.385a.386.386,0,0,1-.166.59L26.2,11.962a.5.5,0,0,1-.239.07A.4.4,0,0,1,25.612,11.783ZM63.725,9.649l-2.1-.95a.4.4,0,0,1-.219-.58L63.546,3.4a.4.4,0,0,1,.58-.218l2.1.95a2.911,2.911,0,0,1,1.659,4.068,2.83,2.83,0,0,1-2.622,1.813A3.736,3.736,0,0,1,63.725,9.649ZM63.272,7.98l.943.427a1.543,1.543,0,0,0,2.153-.889,1.542,1.542,0,0,0-.753-2.2l-.943-.426Zm-33.3,1.041a.968.968,0,1,1,.89.586A.968.968,0,0,1,29.971,9.021ZM59.748,8.1l-.729-.23a.4.4,0,0,1-.285-.551L60.3,2.381a.4.4,0,0,1,.551-.286l.729.231a.4.4,0,0,1,.285.551L60.3,7.82a.39.39,0,0,1-.378.314A.569.569,0,0,1,59.748,8.1ZM38.714,7.983l-.825-.689a3.371,3.371,0,0,1-.419.134,3.178,3.178,0,0,1-4.009-2.241,3.178,3.178,0,0,1,2.491-3.858,3.18,3.18,0,0,1,4.017,2.238,3.018,3.018,0,0,1-.7,2.809L40.438,7.38c.258.224.153.385-.118.453L39.243,8.1a.666.666,0,0,1-.161.021A.56.56,0,0,1,38.714,7.983ZM36.308,2.758a1.635,1.635,0,0,0-1.226,2.026,1.684,1.684,0,0,0,3.267-.814,1.621,1.621,0,0,0-1.6-1.267A1.837,1.837,0,0,0,36.308,2.758ZM57.614,7.429l-3.127-.68a.394.394,0,0,1-.335-.522l1.1-5.067a.4.4,0,0,1,.521-.335l.748.162a.4.4,0,0,1,.335.521L55.947,5.7l1.95.424a.394.394,0,0,1,.335.522l-.1.446c-.05.233-.18.351-.383.351A.656.656,0,0,1,57.614,7.429ZM53.2,6.457l-.995-.078c-.288-.022-.332-.175-.421-.472l-.18-.575-2.381-.185-.276.54c-.134.279-.192.424-.48.4l-.94-.073c-.288-.022-.425-.192-.273-.461l2.9-5.05a.647.647,0,0,1,.637-.371l.1.008a.635.635,0,0,1,.563.465l2.085,5.436c.1.27-.033.416-.285.416ZM49.755,4.085l1.507.117-.59-1.916Zm-8.641-.4L40.9.841a.393.393,0,0,1,.4-.47l.763-.059a.4.4,0,0,1,.47.4l.223,2.938a1.244,1.244,0,1,0,2.474-.188L45.01.529a.4.4,0,0,1,.4-.471L46.157,0a.392.392,0,0,1,.461.4l.216,2.845a2.71,2.71,0,0,1-2.628,3.089q-.144.011-.284.011A2.7,2.7,0,0,1,41.114,3.686Z" transform="translate(8.287 24.845)"/>
    <text id="_3" data-name="3" class="cls-2" transform="translate(33.932 105.824) rotate(-7.844)"><tspan x="0" y="0">3</tspan></text>
    <g id="Ellipse_1" data-name="Ellipse 1" class="cls-3" transform="translate(-770.01 -3157.926)">
      <path class="cls-4" d="M818.255,3174.539a55.862,55.862,0,1,1-47.715,62.964A55.862,55.862,0,0,1,818.255,3174.539Z"/>
      <path class="cls-5" d="M 825.948486328125 3181.009765625 C 823.7252807617188 3181.009765625 821.4742431640625 3181.16162109375 819.2098388671875 3181.4736328125 C 806.2804565429688 3183.254638671875 794.8184814453125 3189.96435546875 786.9356689453125 3200.366455078125 C 779.0526733398438 3210.7685546875 775.6924438476563 3223.617919921875 777.473876953125 3236.54736328125 C 780.7880859375 3260.605224609375 801.5674438476563 3278.74755859375 825.8084716796875 3278.74755859375 C 828.0318603515625 3278.74755859375 830.2830810546875 3278.595458984375 832.5474853515625 3278.28369140625 C 859.238037109375 3274.606201171875 877.9606323242188 3249.900146484375 874.2832641601563 3223.2099609375 C 870.9690551757813 3199.15185546875 850.189453125 3181.009765625 825.948486328125 3181.009765625 M 825.9485473632813 3174.009521484375 C 853.4169921875 3174.009521484375 877.3634643554688 3194.276611328125 881.2178344726563 3222.25439453125 C 885.4286499023438 3252.8173828125 864.065673828125 3281.00732421875 833.5028686523438 3285.218017578125 C 830.9173583984375 3285.57421875 828.3469848632813 3285.74755859375 825.8085327148438 3285.74755859375 C 798.3399658203125 3285.74755859375 774.3936767578125 3265.48046875 770.5392456054688 3237.502685546875 C 766.3284912109375 3206.939697265625 787.6912841796875 3178.74951171875 818.2544555664063 3174.5390625 C 820.8399047851563 3174.182861328125 823.4100952148438 3174.009521484375 825.9485473632813 3174.009521484375 Z"/>
    </g>
  </g>
</svg>
